<svg height="512" viewBox="0 0 74 74" width="512" xmlns="http://www.w3.org/2000/svg"><g id="color_line" data-name="color line"><path d="m71 63.849h-68l5.434-15.126 7.287-7.301 4.905 8.152 4.618-12.775 8.455-11.277 10.453 14.605 4.523 14.671 2.324-11.202 6.105-6.866 9.285 11.699z" fill="#9297ab"/><path d="m15.72 41.42 4.906 8.154-.333.839a1.352 1.352 0 0 1 -2.434.166l-4.009-7.1-5.53 5.541.11-.3z" fill="#84879c"/><path d="m44.15 40.13 4.525 14.67a1.352 1.352 0 0 1 -2.545-.112l-3.85-12.5-10.3-14.378 1.72-2.29z" fill="#84879c"/><path d="m71 63.85h-2.5l-3.99-13.36-9.26-11.68 1.85-2.08 9.29 11.7z" fill="#84879c"/><path d="m33.755 26.43a.5.5 0 0 1 -.5-.5v-5.969a.5.5 0 0 1 1 0v5.969a.5.5 0 0 1 -.5.5z" fill="#323c6b"/><path d="m44.954 19.961h-11.199v-7.999h11.199l-2.154 3.999z" fill="#27ccbc"/><g fill="#323c6b"><path d="m44.954 20.461h-11.2a.5.5 0 0 1 -.5-.5v-8a.5.5 0 0 1 .5-.5h11.2a.5.5 0 0 1 .44.737l-2.027 3.762 2.027 3.762a.5.5 0 0 1 -.44.737zm-10.7-1h9.862l-1.757-3.261a.5.5 0 0 1 0-.475l1.757-3.262h-9.861z"/><path d="m32.625 67.349h-9.375a.5.5 0 0 1 0-1h9.375a.5.5 0 0 1 0 1z"/><path d="m21 67.349h-.812a.5.5 0 0 1 0-1h.812a.5.5 0 0 1 0 1z"/><path d="m60.875 37.891a.5.5 0 0 1 -.392-.189l-.311-.391a.5.5 0 0 1 .783-.622l.311.391a.5.5 0 0 1 -.391.811z"/><path d="m67.018 45.63a.5.5 0 0 1 -.392-.189l-4.966-6.257a.5.5 0 1 1 .783-.622l4.966 6.257a.5.5 0 0 1 -.391.811z"/><path d="m71 64.349h-68a.5.5 0 0 1 -.471-.669l5.434-15.125a.5.5 0 0 1 .117-.184l7.287-7.3a.5.5 0 0 1 .782.1l4.364 7.251 4.26-11.787a.492.492 0 0 1 .07-.13l8.457-11.282a.471.471 0 0 1 .405-.2.5.5 0 0 1 .4.209l10.453 14.6a.512.512 0 0 1 .071.144l3.95 12.813 1.929-9.3a.5.5 0 0 1 .116-.23l6.1-6.866a.486.486 0 0 1 .388-.168.5.5 0 0 1 .377.189l9.285 11.7a.5.5 0 0 1 .087.168l4.611 15.42a.5.5 0 0 1 -.479.643zm-67.289-1h66.618l-4.391-14.684-8.856-11.158-5.621 6.321-2.296 11.072a.5.5 0 0 1 -.968.046l-4.497-14.593-10.011-13.984-8 10.671-4.589 12.704a.5.5 0 0 1 -.9.088l-4.576-7.6-6.758 6.768z"/></g><path d="m24.034 50.644a.651.651 0 0 1 -.616-.857l.234-.7a.65.65 0 0 1 1.232.414l-.234.7a.651.651 0 0 1 -.616.443z" fill="#fff"/><path d="m25.168 47.293a.659.659 0 0 1 -.206-.034.65.65 0 0 1 -.411-.822l2.73-8.19a.65.65 0 1 1 1.233.411l-2.73 8.19a.65.65 0 0 1 -.616.445z" fill="#fff"/></g></svg>